<svg xmlns="http://www.w3.org/2000/svg" xmlns:xlink="http://www.w3.org/1999/xlink" width="1080" zoomAndPan="magnify" viewBox="0 0 810 809.999993" height="1080" preserveAspectRatio="xMidYMid meet" version="1.0"><defs><g/></defs><g fill="#ffffff" fill-opacity="1"><g transform="translate(392.447361, 653.920986)"><g><path d="M -33.90625 66.46875 L -28.234375 36.0625 L -68.28125 28.59375 L -66.96875 21.515625 L -26.921875 28.984375 L -20.796875 -3.875 L -12.609375 -2.34375 L -27.046875 75.09375 L -80.125 65.1875 L -78.796875 58.09375 Z M -33.90625 66.46875 "/></g></g></g><g fill="#ffffff" fill-opacity="1"><g transform="translate(331.843452, 645.316572)"><g><path d="M -39.609375 -20.421875 C -30.472656 -15.890625 -24.648438 -9.734375 -22.140625 -1.953125 C -19.640625 5.816406 -20.875 14.707031 -25.84375 24.71875 L -45.921875 65.140625 L -53.375 61.4375 L -33.453125 21.328125 C -29.378906 13.128906 -28.191406 6.097656 -29.890625 0.234375 C -31.585938 -5.628906 -35.925781 -10.296875 -42.90625 -13.765625 C -49.96875 -17.273438 -56.34375 -17.929688 -62.03125 -15.734375 C -67.726562 -13.535156 -72.613281 -8.335938 -76.6875 -0.140625 L -96.609375 39.96875 L -103.859375 36.375 L -83.78125 -4.046875 C -78.8125 -14.054688 -72.488281 -20.421875 -64.8125 -23.140625 C -57.144531 -25.867188 -48.742188 -24.960938 -39.609375 -20.421875 Z M -39.609375 -20.421875 "/></g></g></g><g fill="#ffffff" fill-opacity="1"><g transform="translate(261.224928, 610.06423)"><g><path d="M -62.015625 50.203125 L -68.234375 44.65625 L -20.578125 -8.71875 L -53.484375 -38.09375 L -48.6875 -43.46875 L -9.5625 -8.546875 Z M -62.015625 50.203125 "/></g></g></g><g fill="#ffffff" fill-opacity="1"><g transform="translate(217.578705, 572.422275)"><g><path d="M -71.796875 34.84375 L -76.578125 28.03125 L -18.0625 -13.15625 L -43.453125 -49.234375 L -37.5625 -53.375 L -7.390625 -10.484375 Z M -71.796875 34.84375 "/></g></g></g><g fill="#ffffff" fill-opacity="1"><g transform="translate(183.986386, 522.978961)"><g/></g></g><g fill="#ffffff" fill-opacity="1"><g transform="translate(171.974149, 503.161668)"><g><path d="M -8.84375 -33.40625 C -7.226562 -27.78125 -6.585938 -22.128906 -6.921875 -16.453125 C -7.253906 -10.773438 -8.5 -6.109375 -10.65625 -2.453125 L -17.71875 -3.828125 C -15.75 -7.347656 -14.5625 -11.625 -14.15625 -16.65625 C -13.757812 -21.695312 -14.253906 -26.632812 -15.640625 -31.46875 C -17.566406 -38.25 -20.257812 -42.972656 -23.71875 -45.640625 C -27.175781 -48.316406 -30.890625 -49.085938 -34.859375 -47.953125 C -37.890625 -47.085938 -40.046875 -45.476562 -41.328125 -43.125 C -42.609375 -40.78125 -43.351562 -38.132812 -43.5625 -35.1875 C -43.769531 -32.238281 -43.78125 -28.222656 -43.59375 -23.140625 C -43.394531 -17.023438 -43.476562 -12.082031 -43.84375 -8.3125 C -44.21875 -4.539062 -45.425781 -1.054688 -47.46875 2.140625 C -49.519531 5.335938 -52.890625 7.601562 -57.578125 8.9375 C -61.398438 10.03125 -65.164062 10.015625 -68.875 8.890625 C -72.59375 7.765625 -75.988281 5.378906 -79.0625 1.734375 C -82.132812 -1.910156 -84.554688 -6.835938 -86.328125 -13.046875 C -87.566406 -17.367188 -88.179688 -21.773438 -88.171875 -26.265625 C -88.160156 -30.753906 -87.539062 -34.8125 -86.3125 -38.4375 L -79.15625 -37.546875 C -80.332031 -33.773438 -80.929688 -29.9375 -80.953125 -26.03125 C -80.972656 -22.132812 -80.488281 -18.457031 -79.5 -15 C -77.601562 -8.351562 -74.898438 -3.71875 -71.390625 -1.09375 C -67.878906 1.519531 -64.101562 2.253906 -60.0625 1.109375 C -57.03125 0.234375 -54.851562 -1.378906 -53.53125 -3.734375 C -52.21875 -6.097656 -51.472656 -8.804688 -51.296875 -11.859375 C -51.117188 -14.921875 -51.117188 -18.957031 -51.296875 -23.96875 C -51.515625 -29.914062 -51.441406 -34.789062 -51.078125 -38.59375 C -50.722656 -42.40625 -49.53125 -45.882812 -47.5 -49.03125 C -45.476562 -52.1875 -42.160156 -54.425781 -37.546875 -55.75 C -33.722656 -56.832031 -29.953125 -56.796875 -26.234375 -55.640625 C -22.515625 -54.484375 -19.125 -52.035156 -16.0625 -48.296875 C -13.007812 -44.566406 -10.601562 -39.601562 -8.84375 -33.40625 Z M -8.84375 -33.40625 "/></g></g></g><g fill="#ffffff" fill-opacity="1"><g transform="translate(154.671233, 445.240094)"><g><path d="M -72.8125 -24.71875 L -71.5 2.921875 L -78.6875 3.265625 L -81.703125 -60.34375 L -74.515625 -60.6875 L -73.203125 -33.03125 L -1.71875 -36.40625 L -1.328125 -28.09375 Z M -72.8125 -24.71875 "/></g></g></g><g fill="#ffffff" fill-opacity="1"><g transform="translate(149.881506, 390.086104)"><g><path d="M -8.046875 -65.1875 L -16.90625 -22.21875 L 1.796875 -8.703125 L 0.046875 -0.21875 L -69.828125 -51.390625 L -68.171875 -59.421875 L 16.25 -78.796875 L 14.46875 -70.1875 Z M -15.265625 -63.578125 L -60.515625 -53.609375 L -22.90625 -26.546875 Z M -15.265625 -63.578125 "/></g></g></g><g fill="#ffffff" fill-opacity="1"><g transform="translate(162.651906, 320.881535)"><g><path d="M 22.390625 -41.359375 C 18.773438 -34.441406 13.988281 -29.007812 8.03125 -25.0625 C 2.082031 -21.113281 -4.425781 -18.972656 -11.5 -18.640625 C -18.582031 -18.316406 -25.476562 -19.910156 -32.1875 -23.421875 C -38.90625 -26.941406 -44.140625 -31.695312 -47.890625 -37.6875 C -51.648438 -43.6875 -53.601562 -50.273438 -53.75 -57.453125 C -53.894531 -64.640625 -52.15625 -71.6875 -48.53125 -78.59375 C -45.820312 -83.78125 -42.453125 -88.113281 -38.421875 -91.59375 C -34.390625 -95.070312 -29.910156 -97.472656 -24.984375 -98.796875 L -22.78125 -91.65625 C -31.144531 -89.101562 -37.5 -83.671875 -41.84375 -75.359375 C -44.738281 -69.847656 -46.097656 -64.171875 -45.921875 -58.328125 C -45.753906 -52.484375 -44.148438 -47.128906 -41.109375 -42.265625 C -38.066406 -37.410156 -33.820312 -33.554688 -28.375 -30.703125 C -22.925781 -27.859375 -17.332031 -26.566406 -11.59375 -26.828125 C -5.863281 -27.097656 -0.5625 -28.832031 4.3125 -32.03125 C 9.195312 -35.226562 13.085938 -39.582031 15.984375 -45.09375 C 20.359375 -53.46875 21.160156 -61.8125 18.390625 -70.125 L 25.5625 -72.359375 C 27.28125 -67.554688 27.859375 -62.484375 27.296875 -57.140625 C 26.742188 -51.804688 25.109375 -46.546875 22.390625 -41.359375 Z M 22.390625 -41.359375 "/></g></g></g><g fill="#ffffff" fill-opacity="1"><g transform="translate(194.16692, 257.688057)"><g><path d="M -1.1875 -52.5 L -0.453125 -29.59375 L 14.5625 -15.34375 L 8.828125 -9.296875 L -48.28125 -63.53125 L -42.546875 -69.578125 L -8.046875 -36.8125 L -10.703125 -103.09375 L -4.125 -110.03125 L -1.71875 -60.765625 L 54.625 -57.515625 L 47.796875 -50.34375 Z M -1.1875 -52.5 "/></g></g></g><g fill="#ffffff" fill-opacity="1"><g transform="translate(245.337428, 206.250547)"><g/></g></g><g fill="#ffffff" fill-opacity="1"><g transform="translate(257.474755, 188.167214)"><g><path d="M 85.921875 -115.96875 L 88.484375 -32.890625 L 80.25 -29.84375 L 35.234375 -84.765625 L 36.90625 -13.71875 L 28.796875 -10.703125 L -23.5625 -75.28125 L -15.53125 -78.265625 L 29.375 -22.6875 L 27.796875 -94.375 L 35.078125 -97.078125 L 80.546875 -41.34375 L 78.4375 -113.1875 Z M 85.921875 -115.96875 "/></g></g></g><g fill="#ffffff" fill-opacity="1"><g transform="translate(363.077512, 151.095711)"><g><path d="M 68.4375 -7.921875 L 68.515625 -0.71875 L 12.828125 -0.140625 L 12 -78.90625 L 66 -79.46875 L 66.078125 -72.265625 L 20.40625 -71.78125 L 20.703125 -43.765625 L 61.4375 -44.1875 L 61.515625 -37.09375 L 20.78125 -36.671875 L 21.078125 -7.421875 Z M 68.4375 -7.921875 "/></g></g></g><g fill="#ffffff" fill-opacity="1"><g transform="translate(428.174858, 148.337034)"><g><path d="M 70.9375 -22.8125 C 75.613281 -20.363281 78.875 -17.15625 80.71875 -13.1875 C 82.5625 -9.226562 82.796875 -4.71875 81.421875 0.34375 C 79.640625 6.863281 75.863281 11.222656 70.09375 13.421875 C 64.332031 15.617188 56.75 15.4375 47.34375 12.875 L 12.375 3.375 L 33.0625 -72.625 L 65.859375 -63.703125 C 74.316406 -61.398438 80.414062 -57.910156 84.15625 -53.234375 C 87.90625 -48.566406 88.929688 -43.125 87.234375 -36.90625 C 86.097656 -32.695312 84.097656 -29.410156 81.234375 -27.046875 C 78.367188 -24.679688 74.9375 -23.269531 70.9375 -22.8125 Z M 39.28125 -63.8125 L 31.78125 -36.234375 L 56 -29.65625 C 62.15625 -27.976562 67.210938 -27.859375 71.171875 -29.296875 C 75.140625 -30.742188 77.734375 -33.71875 78.953125 -38.21875 C 80.171875 -42.695312 79.4375 -46.566406 76.75 -49.828125 C 74.070312 -53.085938 69.65625 -55.554688 63.5 -57.234375 Z M 49.015625 6.21875 C 55.816406 8.070312 61.269531 8.316406 65.375 6.953125 C 69.488281 5.585938 72.21875 2.441406 73.5625 -2.484375 C 76.144531 -11.960938 70.554688 -18.578125 56.796875 -22.328125 L 29.984375 -29.609375 L 22.203125 -1.0625 Z M 49.015625 6.21875 "/></g></g></g><g fill="#ffffff" fill-opacity="1"><g transform="translate(501.9854, 170.459463)"><g/></g></g><g fill="#ffffff" fill-opacity="1"><g transform="translate(523.358444, 176.459063)"><g><path d="M 59.171875 -53.546875 L 84.234375 -33.53125 C 90.742188 -28.332031 95.445312 -22.4375 98.34375 -15.84375 C 101.238281 -9.257812 102.203125 -2.535156 101.234375 4.328125 C 100.265625 11.191406 97.394531 17.613281 92.625 23.59375 C 87.851562 29.570312 82.226562 33.785156 75.75 36.234375 C 69.269531 38.691406 62.5 39.234375 55.4375 37.859375 C 48.375 36.492188 41.585938 33.210938 35.078125 28.015625 L 10.015625 8 Z M 39.21875 22.109375 C 44.613281 26.421875 50.1875 29.117188 55.9375 30.203125 C 61.695312 31.296875 67.195312 30.84375 72.4375 28.84375 C 77.675781 26.851562 82.265625 23.394531 86.203125 18.46875 C 90.128906 13.539062 92.488281 8.296875 93.28125 2.734375 C 94.082031 -2.816406 93.3125 -8.273438 90.96875 -13.640625 C 88.632812 -19.015625 84.769531 -23.859375 79.375 -28.171875 L 61.1875 -42.703125 L 21.03125 7.578125 Z M 39.21875 22.109375 "/></g></g></g><g fill="#ffffff" fill-opacity="1"><g transform="translate(587.661413, 227.441824)"><g><path d="M 44.984375 52.1875 L 39.0625 56.296875 L 7.3125 10.546875 L 72.03125 -34.359375 L 102.8125 10 L 96.890625 14.109375 L 70.859375 -23.421875 L 47.84375 -7.453125 L 71.0625 26.015625 L 65.234375 30.0625 L 42.015625 -3.40625 L 17.984375 13.265625 Z M 44.984375 52.1875 "/></g></g></g><g fill="#ffffff" fill-opacity="1"><g transform="translate(626.217584, 280.308484)"><g><path d="M 100.4375 47.4375 L 14.546875 40.9375 L 11.796875 33.1875 L 74.328125 -26.03125 L 77.34375 -17.5625 L 22.96875 33.75 L 97.609375 39.484375 Z M 100.4375 47.4375 "/></g></g></g><g fill="#ffffff" fill-opacity="1"><g transform="translate(650.228526, 344.603708)"><g><path d="M 12.390625 67.765625 L 5.203125 68.3125 L 0.96875 12.796875 L 79.5 6.8125 L 83.609375 60.65625 L 76.4375 61.203125 L 72.96875 15.65625 L 45.03125 17.78125 L 48.125 58.40625 L 41.046875 58.953125 L 37.953125 18.328125 L 8.796875 20.546875 Z M 12.390625 67.765625 "/></g></g></g><g fill="#ffffff" fill-opacity="1"><g transform="translate(655.821693, 410.40056)"><g><path d="M 75.515625 25.8125 L 74.109375 34.03125 L 3.5625 22.0625 L -3.8125 65.546875 L -10.921875 64.34375 L -2.140625 12.640625 Z M 75.515625 25.8125 "/></g></g></g><g fill="#ffffff" fill-opacity="1"><g transform="translate(649.716022, 466.437582)"><g><path d="M -20.953125 42.34375 C -17.597656 35.3125 -12.984375 29.6875 -7.109375 25.46875 C -1.234375 21.257812 5.210938 18.851562 12.234375 18.25 C 19.253906 17.644531 26.179688 18.972656 33.015625 22.234375 C 39.859375 25.503906 45.253906 30.054688 49.203125 35.890625 C 53.148438 41.722656 55.332031 48.25 55.75 55.46875 C 56.164062 62.6875 54.695312 69.8125 51.34375 76.84375 C 47.976562 83.882812 43.390625 89.488281 37.578125 93.65625 C 31.765625 97.832031 25.320312 100.226562 18.25 100.84375 C 11.1875 101.457031 4.234375 100.128906 -2.609375 96.859375 C -9.441406 93.597656 -14.835938 89.03125 -18.796875 83.15625 C -22.765625 77.28125 -24.957031 70.769531 -25.375 63.625 C -25.789062 56.476562 -24.316406 49.382812 -20.953125 42.34375 Z M -14.25 45.546875 C -16.9375 51.171875 -18.09375 56.859375 -17.71875 62.609375 C -17.34375 68.359375 -15.515625 73.585938 -12.234375 78.296875 C -8.960938 83.015625 -4.554688 86.695312 0.984375 89.34375 C 6.546875 92 12.191406 93.113281 17.921875 92.6875 C 23.648438 92.269531 28.863281 90.398438 33.5625 87.078125 C 38.269531 83.753906 41.96875 79.28125 44.65625 73.65625 C 47.332031 68.039062 48.488281 62.34375 48.125 56.5625 C 47.757812 50.78125 45.945312 45.507812 42.6875 40.75 C 39.4375 36 35.03125 32.296875 29.46875 29.640625 C 23.925781 26.992188 18.28125 25.898438 12.53125 26.359375 C 6.78125 26.828125 1.550781 28.738281 -3.15625 32.09375 C -7.875 35.445312 -11.570312 39.929688 -14.25 45.546875 Z M -14.25 45.546875 "/></g></g></g><g fill="#ffffff" fill-opacity="1"><g transform="translate(614.498312, 541.795059)"><g><path d="M 29 84.578125 C 22.164062 91.953125 15.050781 96.09375 7.65625 97 C 0.269531 97.914062 -6.503906 95.515625 -12.671875 89.796875 C -18.828125 84.085938 -21.71875 77.523438 -21.34375 70.109375 C -20.96875 62.691406 -17.363281 55.296875 -10.53125 47.921875 L 3.859375 32.40625 L -14.375 15.515625 L -8.71875 9.40625 L 49.046875 62.953125 Z M -5.015625 52.734375 C -10.316406 58.460938 -13.113281 63.992188 -13.40625 69.328125 C -13.707031 74.671875 -11.578125 79.457031 -7.015625 83.6875 C -2.328125 88.03125 2.664062 89.847656 7.96875 89.140625 C 13.269531 88.441406 18.570312 85.226562 23.875 79.5 L 38.109375 64.15625 L 9.21875 37.390625 Z M -5.015625 52.734375 "/></g></g></g><g fill="#ffffff" fill-opacity="1"><g transform="translate(567.159568, 594.336185)"><g><path d="M -54.46875 42.1875 L -58.265625 36.0625 L -10.90625 6.75 L 30.546875 73.71875 L -15.375 102.140625 L -19.171875 96.015625 L 19.671875 71.984375 L 4.9375 48.171875 L -29.703125 69.609375 L -33.4375 63.578125 L 1.203125 42.140625 L -14.1875 17.265625 Z M -54.46875 42.1875 "/></g></g></g><g fill="#ffffff" fill-opacity="1"><g transform="translate(512.572495, 630.19979)"><g><path d="M -63.9375 18.671875 L -39.5625 37.921875 C -37.675781 37.140625 -35.691406 36.445312 -33.609375 35.84375 L -13.3125 29.90625 L -20.3125 5.921875 L -12.3125 3.59375 L 9.765625 79.203125 L -18.53125 87.46875 C -28.1875 90.28125 -36.421875 90.179688 -43.234375 87.171875 C -50.054688 84.160156 -54.644531 78.617188 -57 70.546875 C -58.71875 64.648438 -58.675781 59.226562 -56.875 54.28125 C -55.070312 49.34375 -51.664062 45.164062 -46.65625 41.75 L -72.6875 21.21875 Z M -31.40625 42.578125 C -38.894531 44.765625 -44.132812 48.09375 -47.125 52.5625 C -50.113281 57.03125 -50.738281 62.25 -49 68.21875 C -47.207031 74.351562 -43.851562 78.476562 -38.9375 80.59375 C -34.019531 82.707031 -27.816406 82.671875 -20.328125 80.484375 L -0.25 74.609375 L -11.328125 36.703125 Z M -31.40625 42.578125 "/></g></g></g><g fill="#ffffff" fill-opacity="1"><g transform="translate(440.867946, 649.096383)"><g><path d="M -11.921875 0.65625 C -10.285156 0.488281 -8.828125 0.941406 -7.546875 2.015625 C -6.265625 3.085938 -5.535156 4.484375 -5.359375 6.203125 C -5.179688 7.921875 -5.609375 9.414062 -6.640625 10.6875 C -7.679688 11.96875 -9.019531 12.691406 -10.65625 12.859375 C -12.300781 13.023438 -13.78125 12.59375 -15.09375 11.5625 C -16.40625 10.53125 -17.148438 9.15625 -17.328125 7.4375 C -17.503906 5.71875 -17.054688 4.195312 -15.984375 2.875 C -14.921875 1.5625 -13.566406 0.820312 -11.921875 0.65625 Z M -11.921875 0.65625 "/></g></g></g></svg>